<?xml version="1.0" encoding="UTF-8"?>
<!DOCTYPE svg PUBLIC "-//W3C//DTD SVG 1.1//EN" "http://www.w3.org/Graphics/SVG/1.1/DTD/svg11.dtd">
<svg xmlns="http://www.w3.org/2000/svg" version="1.1" width="132px" height="132px" style="shape-rendering:geometricPrecision; text-rendering:geometricPrecision; image-rendering:optimizeQuality; fill-rule:evenodd; clip-rule:evenodd" xmlns:xlink="http://www.w3.org/1999/xlink">
<g><path style="opacity:1" fill="#fdfdfc" d="M -0.5,-0.5 C 43.5,-0.5 87.5,-0.5 131.5,-0.5C 131.5,43.5 131.5,87.5 131.5,131.5C 87.5,131.5 43.5,131.5 -0.5,131.5C -0.5,87.5 -0.5,43.5 -0.5,-0.5 Z"/></g>
<g><path style="opacity:1" fill="#a64645" d="M 64.5,31.5 C 63.2905,31.0679 62.2905,30.4013 61.5,29.5C 61.0825,28.7784 60.4158,28.2784 59.5,28C 55.4517,27.6958 51.4517,27.1958 47.5,26.5C 47.4614,25.2438 47.9614,24.2438 49,23.5C 51.8245,25.1878 54.9912,26.0211 58.5,26C 61.6466,26.6488 63.6466,28.4821 64.5,31.5 Z"/></g>
<g><path style="opacity:1" fill="#d5321f" d="M 61.5,29.5 C 62.2905,30.4013 63.2905,31.0679 64.5,31.5C 63.2611,34.5889 61.7611,37.5889 60,40.5C 58.9326,41.1905 57.7659,41.6905 56.5,42C 57.3366,43.0113 57.67,44.1779 57.5,45.5C 57.6107,46.1174 57.944,46.6174 58.5,47C 57.0797,48.4916 55.7464,49.9916 54.5,51.5C 53.5028,51.5299 52.8361,51.0299 52.5,50C 53.4581,45.8373 53.9581,41.6707 54,37.5C 53,36.8333 52,36.1667 51,35.5C 49.8173,36.731 48.6507,36.731 47.5,35.5C 46.5153,33.9017 46.3486,32.235 47,30.5C 51.6692,28.1935 56.5025,27.8602 61.5,29.5 Z"/></g>
<g><path style="opacity:1" fill="#a82b2f" d="M 47.5,26.5 C 51.4517,27.1958 55.4517,27.6958 59.5,28C 60.4158,28.2784 61.0825,28.7784 61.5,29.5C 56.5025,27.8602 51.6692,28.1935 47,30.5C 46.3486,32.235 46.5153,33.9017 47.5,35.5C 48.6507,36.731 49.8173,36.731 51,35.5C 52,36.1667 53,36.8333 54,37.5C 53.9581,41.6707 53.4581,45.8373 52.5,50C 52.8361,51.0299 53.5028,51.5299 54.5,51.5C 54.5,52.5 54.5,53.5 54.5,54.5C 52.412,53.0605 50.0786,52.3939 47.5,52.5C 47.5,51.5 47.5,50.5 47.5,49.5C 52.1514,48.8258 53.6514,46.1592 52,41.5C 51.6667,40.1667 51.3333,38.8333 51,37.5C 46.9052,38.7975 44.7385,37.1308 44.5,32.5C 44.6206,29.8952 45.6206,27.8952 47.5,26.5 Z"/></g>
<g><path style="opacity:1" fill="#503843" d="M 43.5,37.5 C 43.5,38.5 43.5,39.5 43.5,40.5C 44.5,40.5 45.5,40.5 46.5,40.5C 46.5875,43.5983 46.0875,43.9316 45,41.5C 43.603,44.0676 42.4364,43.9009 41.5,41C 41.8082,39.5405 42.4749,38.3739 43.5,37.5 Z"/></g>
<g><path style="opacity:1" fill="#e89e7f" d="M 64.5,31.5 C 67.6632,33.8112 70.9965,35.9778 74.5,38C 71.4496,38.4968 70.4496,39.9968 71.5,42.5C 69.703,43.6951 68.703,45.3618 68.5,47.5C 66.1582,47.7748 66.1582,48.6081 68.5,50C 67.5842,50.2784 66.9175,50.7784 66.5,51.5C 65.8423,50.6016 65.1757,49.6016 64.5,48.5C 63.8076,49.0253 63.3076,49.6919 63,50.5C 62.5635,47.2277 60.7301,45.561 57.5,45.5C 57.67,44.1779 57.3366,43.0113 56.5,42C 57.7659,41.6905 58.9326,41.1905 60,40.5C 61.7611,37.5889 63.2611,34.5889 64.5,31.5 Z"/></g>
<g><path style="opacity:1" fill="#c34c38" d="M 64.5,39.5 C 66.4488,40.1839 68.1155,41.3506 69.5,43C 68.354,43.6449 67.354,44.4783 66.5,45.5C 65.8586,43.7045 64.8586,42.2045 63.5,41C 64.056,40.6174 64.3893,40.1174 64.5,39.5 Z"/></g>
<g><path style="opacity:1" fill="#77303f" d="M 44.5,32.5 C 44.7385,37.1308 46.9052,38.7975 51,37.5C 51.3333,38.8333 51.6667,40.1667 52,41.5C 53.6514,46.1592 52.1514,48.8258 47.5,49.5C 47.5,50.5 47.5,51.5 47.5,52.5C 45.7866,50.805 43.7866,49.9717 41.5,50C 42.8228,50.8159 43.4894,51.9826 43.5,53.5C 43.5,54.5 43.5,55.5 43.5,56.5C 35.6502,47.7001 37.3168,45.0335 48.5,48.5C 48.8511,45.7623 49.5178,43.0956 50.5,40.5C 49.3002,39.7084 47.9669,39.7084 46.5,40.5C 45.5,40.5 44.5,40.5 43.5,40.5C 43.5,39.5 43.5,38.5 43.5,37.5C 43.2155,35.5853 43.5489,33.9187 44.5,32.5 Z"/></g>
<g><path style="opacity:1" fill="#fcdddb" d="M 47.5,52.5 C 48.0906,53.1515 48.7573,53.8182 49.5,54.5C 47.5188,55.0886 45.5188,54.7553 43.5,53.5C 43.4894,51.9826 42.8228,50.8159 41.5,50C 43.7866,49.9717 45.7866,50.805 47.5,52.5 Z"/></g>
<g><path style="opacity:1" fill="#dc6e54" d="M 57.5,45.5 C 60.7301,45.561 62.5635,47.2277 63,50.5C 63.3076,49.6919 63.8076,49.0253 64.5,48.5C 65.1757,49.6016 65.8423,50.6016 66.5,51.5C 64.8007,52.2794 62.8007,53.6127 60.5,55.5C 59.4937,55.9377 59.4937,56.6043 60.5,57.5C 60.1667,57.5 59.8333,57.5 59.5,57.5C 58.5041,57.4142 57.6708,57.7476 57,58.5C 56.0656,57.1416 55.2323,55.8083 54.5,54.5C 54.5,53.5 54.5,52.5 54.5,51.5C 55.7464,49.9916 57.0797,48.4916 58.5,47C 57.944,46.6174 57.6107,46.1174 57.5,45.5 Z"/></g>
<g><path style="opacity:1" fill="#ba6462" d="M 47.5,52.5 C 50.0786,52.3939 52.412,53.0605 54.5,54.5C 55.2323,55.8083 56.0656,57.1416 57,58.5C 57.6708,57.7476 58.5041,57.4142 59.5,57.5C 59.5,58.5 59.5,59.5 59.5,60.5C 58.5084,60.3284 57.8417,60.6618 57.5,61.5C 52.8699,61.3707 48.2032,61.0374 43.5,60.5C 42.8333,59.8333 42.1667,59.1667 41.5,58.5C 42.1667,57.8333 42.8333,57.1667 43.5,56.5C 43.5,55.5 43.5,54.5 43.5,53.5C 45.5188,54.7553 47.5188,55.0886 49.5,54.5C 48.7573,53.8182 48.0906,53.1515 47.5,52.5 Z"/></g>
<g><path style="opacity:1" fill="#caa6a8" d="M 68.5,47.5 C 71.7181,47.6509 72.0515,48.4842 69.5,50C 71.9519,50.2895 74.2852,50.9562 76.5,52C 75.8333,52.3333 75.1667,52.6667 74.5,53C 75.7932,53.49 77.1266,53.6567 78.5,53.5C 76.4402,54.8112 74.2735,54.8112 72,53.5C 71.8333,53.8333 71.6667,54.1667 71.5,54.5C 73.4233,55.3078 75.4233,55.8078 77.5,56C 74.9373,57.0793 72.2706,57.5793 69.5,57.5C 68.2438,57.4614 67.2438,57.9614 66.5,59C 67.9494,60.117 69.6161,60.7837 71.5,61C 70.3914,61.6377 69.2247,62.1377 68,62.5C 65.405,60.8542 62.5716,60.1875 59.5,60.5C 59.5,59.5 59.5,58.5 59.5,57.5C 59.8333,57.5 60.1667,57.5 60.5,57.5C 61.7514,59.561 63.4181,59.8943 65.5,58.5C 63.9776,56.8437 64.311,55.677 66.5,55C 64.5116,54.8195 62.5116,54.9862 60.5,55.5C 62.8007,53.6127 64.8007,52.2794 66.5,51.5C 66.9175,50.7784 67.5842,50.2784 68.5,50C 66.1582,48.6081 66.1582,47.7748 68.5,47.5 Z"/></g>
<g><path style="opacity:1" fill="#bd2218" d="M 20.5,74.5 C 17.9407,74.8016 15.6074,74.4682 13.5,73.5C 13.5,71.1667 13.5,68.8333 13.5,66.5C 13.219,61.4351 13.5524,56.4351 14.5,51.5C 18.1073,50.5108 21.774,50.1774 25.5,50.5C 25.6097,58.5246 25.2763,66.5246 24.5,74.5C 23.1667,74.5 21.8333,74.5 20.5,74.5 Z"/></g>
<g><path style="opacity:1" fill="#7a464e" d="M 60.5,57.5 C 59.4937,56.6043 59.4937,55.9377 60.5,55.5C 62.5116,54.9862 64.5116,54.8195 66.5,55C 64.311,55.677 63.9776,56.8437 65.5,58.5C 63.4181,59.8943 61.7514,59.561 60.5,57.5 Z"/></g>
<g><path style="opacity:1" fill="#cce2df" d="M 97.5,61.5 C 96.8333,62.1667 96.1667,62.8333 95.5,63.5C 94.8826,63.3893 94.3826,63.056 94,62.5C 93.5034,64.8098 93.3367,67.1432 93.5,69.5C 91.629,69.1412 90.129,68.1412 89,66.5C 88.4837,63.9664 87.317,61.7998 85.5,60C 86.1667,59.6667 86.8333,59.3333 87.5,59C 85.444,58.6892 83.444,58.1892 81.5,57.5C 80.4104,58.3914 80.4104,59.3914 81.5,60.5C 80.3984,61.1757 79.3984,61.8423 78.5,62.5C 74.5714,61.1535 74.9048,60.3202 79.5,60C 75.9101,59.6894 72.5767,58.856 69.5,57.5C 72.2706,57.5793 74.9373,57.0793 77.5,56C 75.4233,55.8078 73.4233,55.3078 71.5,54.5C 71.6667,54.1667 71.8333,53.8333 72,53.5C 74.2735,54.8112 76.4402,54.8112 78.5,53.5C 81.1368,51.5726 84.1368,51.0726 87.5,52C 87.1667,52.3333 86.8333,52.6667 86.5,53C 91.7632,53.7628 95.4299,56.5962 97.5,61.5 Z"/></g>
<g><path style="opacity:1" fill="#495c64" d="M 69.5,57.5 C 72.5767,58.856 75.9101,59.6894 79.5,60C 74.9048,60.3202 74.5714,61.1535 78.5,62.5C 78.9382,62.4346 79.2716,62.6012 79.5,63C 78.4734,63.5133 77.4734,64.0133 76.5,64.5C 69.7629,65.2437 63.4295,64.2437 57.5,61.5C 57.8417,60.6618 58.5084,60.3284 59.5,60.5C 62.5716,60.1875 65.405,60.8542 68,62.5C 69.2247,62.1377 70.3914,61.6377 71.5,61C 69.6161,60.7837 67.9494,60.117 66.5,59C 67.2438,57.9614 68.2438,57.4614 69.5,57.5 Z"/></g>
<g><path style="opacity:1" fill="#9b646a" d="M 41.5,58.5 C 42.1667,59.1667 42.8333,59.8333 43.5,60.5C 43.6941,62.9118 45.0274,63.9118 47.5,63.5C 47.5,64.5 47.5,65.5 47.5,66.5C 48.5,66.5 49.5,66.5 50.5,66.5C 50.5,67.5 50.5,68.5 50.5,69.5C 48.3043,69.4348 46.3043,68.7681 44.5,67.5C 43.0787,64.9906 41.4121,62.6572 39.5,60.5C 39.8555,59.4777 40.5222,58.811 41.5,58.5 Z"/></g>
<g><path style="opacity:1" fill="#74b2aa" d="M 93.5,69.5 C 94.463,70.3635 94.463,71.0302 93.5,71.5C 92.2322,70.5721 90.8989,70.4054 89.5,71C 91.0557,71.7202 92.0557,72.8868 92.5,74.5C 92.5,74.8333 92.5,75.1667 92.5,75.5C 91.1667,75.8333 89.8333,76.1667 88.5,76.5C 89.3029,75.5768 89.4696,74.5768 89,73.5C 87.3333,71.8333 85.6667,70.1667 84,68.5C 83.342,70.108 83.842,71.2747 85.5,72C 80.0379,72.7198 77.0379,70.2198 76.5,64.5C 77.4734,64.0133 78.4734,63.5133 79.5,63C 79.2716,62.6012 78.9382,62.4346 78.5,62.5C 79.3984,61.8423 80.3984,61.1757 81.5,60.5C 80.4104,59.3914 80.4104,58.3914 81.5,57.5C 83.444,58.1892 85.444,58.6892 87.5,59C 86.8333,59.3333 86.1667,59.6667 85.5,60C 87.317,61.7998 88.4837,63.9664 89,66.5C 90.129,68.1412 91.629,69.1412 93.5,69.5 Z"/></g>
<g><path style="opacity:1" fill="#d9695d" d="M 19.5,62.5 C 20.9221,62.7496 21.9221,63.583 22.5,65C 21.8903,66.9472 21.0569,68.7806 20,70.5C 19.4304,67.1562 18.2638,66.8228 16.5,69.5C 14.6873,65.8097 15.6873,63.4764 19.5,62.5 Z"/></g>
<g><path style="opacity:1" fill="#657c7c" d="M 97.5,61.5 C 100.079,62.2276 102.746,62.7276 105.5,63C 106.833,63.6667 106.833,64.3333 105.5,65C 107.087,65.8624 108.754,66.5291 110.5,67C 106.795,69.9436 102.795,70.2769 98.5,68C 97.1175,66.7292 96.1175,65.2292 95.5,63.5C 96.1667,62.8333 96.8333,62.1667 97.5,61.5 Z"/></g>
<g><path style="opacity:1" fill="#e59994" d="M 20.5,74.5 C 21.8333,74.5 23.1667,74.5 24.5,74.5C 25.2763,66.5246 25.6097,58.5246 25.5,50.5C 21.774,50.1774 18.1073,50.5108 14.5,51.5C 13.5524,56.4351 13.219,61.4351 13.5,66.5C 12.5166,62.7016 12.1832,58.7016 12.5,54.5C 12.2606,52.5328 12.5939,50.6995 13.5,49C 17.8351,48.7368 22.1684,48.9035 26.5,49.5C 27.4987,57.8106 27.6653,66.1439 27,74.5C 24.7265,75.8112 22.5598,75.8112 20.5,74.5 Z"/></g>
<g><path style="opacity:1" fill="#ed978e" d="M 17.5,55.5 C 19.4817,55.9954 21.4817,56.4954 23.5,57C 21.6259,59.4547 19.2925,59.9547 16.5,58.5C 17.1272,57.5832 17.4606,56.5832 17.5,55.5 Z"/></g>
<g><path style="opacity:1" fill="#f5ccb9" d="M 12.5,54.5 C 12.1832,58.7016 12.5166,62.7016 13.5,66.5C 13.5,68.8333 13.5,71.1667 13.5,73.5C 12.0776,69.761 11.4109,65.761 11.5,61.5C 11.5034,58.9746 11.8367,56.6413 12.5,54.5 Z"/></g>
<g><path style="opacity:1" fill="#517071" d="M 88.5,76.5 C 90.0188,77.4098 91.6854,78.2432 93.5,79C 91.7444,79.2022 90.0777,79.7022 88.5,80.5C 89.2458,81.7362 89.5792,83.0695 89.5,84.5C 88.5,84.5 87.5,84.5 86.5,84.5C 86.3739,82.8002 85.7073,81.3002 84.5,80C 85.6449,78.5979 86.9783,77.4312 88.5,76.5 Z"/></g>
<g><path style="opacity:1" fill="#383d47" d="M 106.5,88.5 C 106.158,89.3382 105.492,89.6716 104.5,89.5C 103.596,90.209 103.263,91.209 103.5,92.5C 102.209,92.7373 101.209,92.404 100.5,91.5C 101.186,90.1516 102.186,88.985 103.5,88C 102.277,85.056 100.444,82.556 98,80.5C 97.5172,79.552 97.3505,78.552 97.5,77.5C 95.4862,77.6085 93.8195,76.9418 92.5,75.5C 92.5,75.1667 92.5,74.8333 92.5,74.5C 94.3786,74.6068 94.7119,74.1068 93.5,73C 96.4904,72.1531 97.8238,73.3198 97.5,76.5C 100.166,76.0658 101.333,77.0658 101,79.5C 100.346,78.3044 99.8457,78.3044 99.5,79.5C 100.919,82.4179 103.252,83.9179 106.5,84C 105.833,84.3333 105.167,84.6667 104.5,85C 106.241,86.083 106.907,87.2497 106.5,88.5 Z"/></g>
<g><path style="opacity:1" fill="#212121" d="M 61.5,94.5 C 60.2876,95.2299 59.2876,96.2299 58.5,97.5C 58.2514,96.4179 58.0848,95.0846 58,93.5C 57.6582,95.6192 56.8249,95.9526 55.5,94.5C 54.9569,94.44 54.6236,94.1067 54.5,93.5C 55.727,92.4096 56.5604,91.0762 57,89.5C 59.0596,90.7612 60.5596,92.4279 61.5,94.5 Z"/></g>
<g><path style="opacity:1" fill="#232323" d="M 18.5,99.5 C 17.6618,99.8417 17.3284,100.508 17.5,101.5C 17.1667,101.5 16.8333,101.5 16.5,101.5C 16.5393,99.7761 16.206,99.4427 15.5,100.5C 14.0222,100.762 12.6888,100.429 11.5,99.5C 13.7249,98.1065 16.0582,96.9398 18.5,96C 17.6919,95.6924 17.0253,95.1924 16.5,94.5C 17.6461,93.2813 18.6461,91.9479 19.5,90.5C 21.6367,92.5379 23.6367,94.7045 25.5,97C 23.5,97.3333 21.5,97.6667 19.5,98C 18.944,98.3826 18.6107,98.8826 18.5,99.5 Z"/></g>
<g><path style="opacity:1" fill="#a8aaaa" d="M 104.5,89.5 C 104.66,91.1992 104.494,92.8659 104,94.5C 101.386,96.5564 98.5525,98.2231 95.5,99.5C 94.2801,97.7163 94.2801,96.0496 95.5,94.5C 95.369,95.2389 95.5357,95.9056 96,96.5C 97.736,94.9368 99.236,93.2701 100.5,91.5C 101.209,92.404 102.209,92.7373 103.5,92.5C 103.263,91.209 103.596,90.209 104.5,89.5 Z"/></g>
<g><path style="opacity:1" fill="#919191" d="M 61.5,94.5 C 63.7349,95.2481 63.4016,96.0814 60.5,97C 61.4231,99.0408 61.7564,101.208 61.5,103.5C 59.4935,104.679 59.1602,104.179 60.5,102C 59.3333,101.5 58.5,100.667 58,99.5C 56.0234,101.855 56.19,103.855 58.5,105.5C 57.1745,110.57 55.5078,110.57 53.5,105.5C 55.9272,104.721 55.9272,103.554 53.5,102C 54.756,101.583 55.4226,100.75 55.5,99.5C 55.719,98.325 55.3857,97.325 54.5,96.5C 53.2638,97.2458 51.9305,97.5792 50.5,97.5C 50.8333,96.8333 51.1667,96.1667 51.5,95.5C 53.099,95.7678 54.4324,95.4345 55.5,94.5C 56.8249,95.9526 57.6582,95.6192 58,93.5C 58.0848,95.0846 58.2514,96.4179 58.5,97.5C 59.2876,96.2299 60.2876,95.2299 61.5,94.5 Z"/></g>
<g><path style="opacity:1" fill="#cecece" d="M 92.5,97.5 C 91.2794,96.9717 90.1127,96.305 89,95.5C 87.6546,97.6177 87.1546,99.6177 87.5,101.5C 86.6143,100.675 86.281,99.675 86.5,98.5C 86.8079,94.9909 88.8079,93.3243 92.5,93.5C 92.5,94.8333 92.5,96.1667 92.5,97.5 Z"/></g>
<g><path style="opacity:1" fill="#dbdcdb" d="M 106.5,88.5 C 108.549,88.7058 108.883,89.5391 107.5,91C 108.534,93.664 110.2,93.8307 112.5,91.5C 113.59,92.727 114.924,93.5604 116.5,94C 116.499,95.3988 116.165,96.8988 115.5,98.5C 113.302,100.098 110.969,101.431 108.5,102.5C 107.047,102.071 105.381,101.904 103.5,102C 105.037,100.89 105.703,99.3904 105.5,97.5C 102.037,98.0991 98.7036,99.0991 95.5,100.5C 95.5,100.167 95.5,99.8333 95.5,99.5C 98.5525,98.2231 101.386,96.5564 104,94.5C 104.494,92.8659 104.66,91.1992 104.5,89.5C 105.492,89.6716 106.158,89.3382 106.5,88.5 Z"/></g>
<g><path style="opacity:1" fill="#212121" d="M 73.5,91.5 C 78.7956,92.3955 78.7956,93.5622 73.5,95C 79.5231,95.2226 81.3565,98.0559 79,103.5C 78.2613,104.574 77.2613,105.241 76,105.5C 73.9434,104.277 71.7767,103.277 69.5,102.5C 70.7111,101.28 70.7111,100.113 69.5,99C 72.0443,97.2252 72.0443,95.3918 69.5,93.5C 70.9492,92.8281 72.2825,92.1614 73.5,91.5 Z"/></g>
<g><path style="opacity:1" fill="#9c9c9c" d="M 38.5,91.5 C 38.5,92.1667 38.5,92.8333 38.5,93.5C 37.7656,94.8775 37.0989,96.3775 36.5,98C 35.5165,98.5908 34.8499,98.2575 34.5,97C 35.0175,94.4238 36.3509,92.5904 38.5,91.5 Z"/></g>
<g><path style="opacity:1" fill="#1b1b1b" d="M 38.5,91.5 C 36.3509,92.5904 35.0175,94.4238 34.5,97C 34.8499,98.2575 35.5165,98.5908 36.5,98C 37.0989,96.3775 37.7656,94.8775 38.5,93.5C 38.5,94.5 38.5,95.5 38.5,96.5C 42.0175,96.3511 44.0175,98.0178 44.5,101.5C 43.5853,103.918 42.0853,105.918 40,107.5C 38.5659,107.07 37.3992,106.236 36.5,105C 38.0441,104.71 39.3774,104.044 40.5,103C 31.4082,102.685 31.4082,101.518 40.5,99.5C 38.2617,98.6168 36.095,98.9501 34,100.5C 33.454,97.1008 33.7873,93.7675 35,90.5C 36.4936,89.2528 37.9936,89.2528 39.5,90.5C 39.3764,91.1067 39.0431,91.44 38.5,91.5 Z"/></g>
<g><path style="opacity:1" fill="#404040" d="M 51.5,95.5 C 51.1667,96.1667 50.8333,96.8333 50.5,97.5C 46.8574,102.136 45.1908,101.469 45.5,95.5C 47.5,95.5 49.5,95.5 51.5,95.5 Z"/></g>
<g><path style="opacity:1" fill="#f8f8f8" d="M 74.5,98.5 C 76.337,98.6395 76.6704,99.3061 75.5,100.5C 74.7025,100.043 74.3691,99.3764 74.5,98.5 Z"/></g>
<g><path style="opacity:1" fill="#7a7a7a" d="M 16.5,101.5 C 15.9688,103.544 14.8022,105.211 13,106.5C 13.4826,104.463 14.3159,102.463 15.5,100.5C 16.206,99.4427 16.5393,99.7761 16.5,101.5 Z"/></g>
<g><path style="opacity:1" fill="#696969" d="M 18.5,99.5 C 19.3007,101.042 19.634,102.708 19.5,104.5C 18.8333,104.5 18.5,104.833 18.5,105.5C 17.5655,104.432 17.2322,103.099 17.5,101.5C 17.3284,100.508 17.6618,99.8417 18.5,99.5 Z"/></g>
<g><path style="opacity:1" fill="#252525" d="M 55.5,99.5 C 55.4226,100.75 54.756,101.583 53.5,102C 55.9272,103.554 55.9272,104.721 53.5,105.5C 52.6236,105.631 51.9569,105.298 51.5,104.5C 52.154,102.885 52.654,101.218 53,99.5C 53.7697,100.598 54.603,100.598 55.5,99.5 Z"/></g>
<g><path style="opacity:1" fill="#4a4a4a" d="M 92.5,97.5 C 93.4511,98.9187 93.7845,100.585 93.5,102.5C 90.8721,102.285 88.2054,102.951 85.5,104.5C 84.1997,101.691 84.1997,99.0241 85.5,96.5C 85.3284,97.4916 85.6618,98.1583 86.5,98.5C 86.281,99.675 86.6143,100.675 87.5,101.5C 87.1546,99.6177 87.6546,97.6177 89,95.5C 90.1127,96.305 91.2794,96.9717 92.5,97.5 Z"/></g>
<g><path style="opacity:1" fill="#303030" d="M 66.5,99.5 C 67.2485,100.531 67.9152,101.698 68.5,103C 68.1667,103.167 67.8333,103.333 67.5,103.5C 66.5713,102.311 66.238,100.978 66.5,99.5 Z"/></g>
<g><path style="opacity:1" fill="#1f1f1f" d="M 95.5,94.5 C 94.2801,96.0496 94.2801,97.7163 95.5,99.5C 95.5,99.8333 95.5,100.167 95.5,100.5C 95.1756,103.694 96.3422,104.694 99,103.5C 99.7172,104.044 100.217,104.711 100.5,105.5C 97.022,107.33 94.6886,106.33 93.5,102.5C 93.7845,100.585 93.4511,98.9187 92.5,97.5C 92.5,96.1667 92.5,94.8333 92.5,93.5C 88.8079,93.3243 86.8079,94.9909 86.5,98.5C 85.6618,98.1583 85.3284,97.4916 85.5,96.5C 86.7634,93.2466 89.2634,91.2466 93,90.5C 95.0197,91.0319 95.853,92.3652 95.5,94.5 Z"/></g>
<g><path style="opacity:1" fill="#787878" d="M 108.5,102.5 C 105.833,103.5 103.167,104.5 100.5,105.5C 100.217,104.711 99.7172,104.044 99,103.5C 96.3422,104.694 95.1756,103.694 95.5,100.5C 98.7036,99.0991 102.037,98.0991 105.5,97.5C 105.703,99.3904 105.037,100.89 103.5,102C 105.381,101.904 107.047,102.071 108.5,102.5 Z"/></g>
<g><path style="opacity:1" fill="#1c1c1c" d="M 18.5,105.5 C 18.5,104.833 18.8333,104.5 19.5,104.5C 21.1439,104.714 22.6439,104.38 24,103.5C 26.0894,105.991 25.4227,107.324 22,107.5C 20.3009,107.613 19.1342,106.947 18.5,105.5 Z"/></g>
<g><path style="opacity:1" fill="#535353" d="M 61.5,103.5 C 62.0443,107.64 61.0443,108.307 58.5,105.5C 56.19,103.855 56.0234,101.855 58,99.5C 58.5,100.667 59.3333,101.5 60.5,102C 59.1602,104.179 59.4935,104.679 61.5,103.5 Z"/></g>
</svg>
